<?xml version="1.0" encoding="utf-8"?>
<!-- Generator: Adobe Illustrator 18.1.0, SVG Export Plug-In . SVG Version: 6.00 Build 0)  -->
<svg version="1.1" id="Layer_1" xmlns="http://www.w3.org/2000/svg" xmlns:xlink="http://www.w3.org/1999/xlink" x="0px" y="0px"
	 viewBox="0 0 150 150" enable-background="new 0 0 150 150" xml:space="preserve">
<g>
	<path fill="none" d="M11,114.4l29,16.8V25.9L11,40.5V114.4z M28,106.8c0,2.2-1.8,3.3-4,2.4c-2.2-0.8-4-3.3-4-5.4v-8.7
		c0-2.2,1.8-3.3,4-2.4c2.2,0.8,4,3.3,4,5.4V106.8z M15,49l21-7.1V49l-21,7.1V49z M15,63.8l21-7.1v7.1l-21,7.1V63.8z"/>
	<rect x="76" y="96" fill="none" width="14" height="8"/>
	<polygon fill="none" points="47,90 90,90 90,63.1 47,27.5 	"/>
	<rect x="97" y="96" fill="#FFAF3A" width="18" height="8"/>
	<polygon fill="#FFAF3A" points="47,131.8 90,115.7 90,104 76,104 76,96 90,96 90,90 47,90 	"/>
	<polygon fill="#FFAF3A" points="97,59.8 97,90 145,90 145,19 47.9,19 95.7,58.6 	"/>
	<polygon fill="#333132" points="36,41.9 15,49 15,56.1 36,49 	"/>
	<polygon fill="#333132" points="36,56.7 15,63.8 15,70.9 36,63.8 	"/>
	<path fill="#333132" d="M24,92.7c-2.2-0.8-4,0.3-4,2.4v8.7c0,2.2,1.8,4.6,4,5.4c2.2,0.8,4-0.3,4-2.4v-8.7C28,96,26.2,93.5,24,92.7z
		"/>
	<path fill="#333132" d="M97,59.8l-1.3-1.1L47.8,19.2l-2.3-1.9l-1.8-1.5l-2.1,1.1L6,35.2l-2,1v82.3l1.9,1l35,20.7l1.5,0.9l1.6-0.6
		l50.8-18.9l2.3-0.9v-16.9v-7.6v-5.8V59.8z M40,131.3l-29-16.8V40.5l29-14.7V131.3z M90,90.4v5.8v7.6v12l-43,16.1V90.4V27.5l43,35.6
		V90.4z"/>
</g>
</svg>
